<svg xmlns="http://www.w3.org/2000/svg" xmlns:xlink="http://www.w3.org/1999/xlink" width="1920" zoomAndPan="magnify" viewBox="0 0 1440 809.999993" height="1080" preserveAspectRatio="xMidYMid meet" version="1.0"><defs><clipPath id="47a184238c"><path d="M 1203.429688 770 L 1269 770 L 1269 810 L 1203.429688 810 Z M 1203.429688 770 " clip-rule="nonzero"/></clipPath><clipPath id="4d5e710aee"><path d="M 1398 510.890625 L 1440 510.890625 L 1440 576 L 1398 576 Z M 1398 510.890625 " clip-rule="nonzero"/></clipPath></defs><path fill="#879270" d="M 1528.511719 571.675781 C 1527.117188 534.019531 1497.796875 511.269531 1493.609375 508.355469 C 1473.363281 494.269531 1448.683594 488.601562 1424.332031 491.230469 C 1410 492.789062 1395.832031 495.953125 1381.417969 496.199219 C 1335.507812 497.0625 1295.511719 460.226562 1248.207031 474.3125 C 1220.734375 482.484375 1192.359375 511.023438 1190.304688 541.492188 C 1188.785156 563.832031 1205.003906 580.011719 1216.378906 597.503906 C 1235.761719 627.359375 1234.984375 663.289062 1228.207031 697.167969 C 1224.632812 714.992188 1221.429688 733.675781 1226.398438 751.167969 C 1231.945312 770.632812 1252.269531 784.144531 1272.351562 782.828125 C 1295.757812 781.308594 1310.296875 757.410156 1333.867188 752.648438 C 1354.027344 748.582031 1371.6875 758.148438 1391.519531 758.929688 C 1406.34375 759.503906 1421.046875 754.042969 1432.875 745.089844 C 1450.65625 731.582031 1460.097656 714.621094 1462.152344 692.898438 C 1463.796875 675.488281 1462.769531 656.964844 1478.539062 645.425781 C 1485.273438 640.5 1493.03125 637.171875 1499.933594 632.449219 C 1519.808594 618.898438 1529.375 595.246094 1528.511719 571.675781 Z M 1528.511719 571.675781 " fill-opacity="1" fill-rule="nonzero"/><path fill="#feefba" d="M 965.035156 641.636719 C 954.097656 660.714844 958.765625 685.0625 964.855469 706.375 C 970.941406 727.691406 978.144531 750.539062 971.332031 771.613281 C 969.273438 777.984375 965.949219 784.046875 965.46875 790.753906 C 964.550781 803.558594 974.597656 814.925781 986.078125 819.492188 C 997.558594 824.0625 1010.234375 823.449219 1022.515625 823.199219 C 1034.796875 822.945312 1047.65625 823.265625 1058.460938 829.371094 C 1080.390625 841.765625 1085.871094 872.644531 1104.558594 889.894531 C 1118.753906 902.996094 1139.191406 906.601562 1157.960938 903.980469 C 1176.734375 901.363281 1194.335938 893.234375 1211.640625 885.199219 C 1237.277344 873.296875 1263.105469 861.277344 1285.945312 844.265625 C 1307.183594 828.445312 1325.914062 807.859375 1335.738281 782.609375 C 1345.570312 757.359375 1345.46875 727.0625 1331.585938 703.988281 C 1320.191406 685.0625 1299.726562 669.851562 1299.113281 647.5 C 1298.753906 634.367188 1305.742188 621.492188 1303.449219 608.574219 C 1298.214844 579.0625 1257.964844 574.628906 1235.488281 577.882812 C 1208.59375 581.78125 1186.125 597.613281 1167.351562 617.304688 C 1155.207031 630.039062 1143.71875 645.976562 1125.503906 648.542969 C 1098.355469 652.367188 1070.679688 631.664062 1045.875 623.242188 C 1019.144531 614.164062 981.65625 612.636719 965.035156 641.636719 " fill-opacity="1" fill-rule="nonzero"/><path fill="#4987a0" d="M 1398.054688 770.082031 C 1362.222656 770.082031 1333.179688 741.070312 1333.179688 705.285156 L 1398.054688 705.285156 Z M 1398.054688 770.082031 " fill-opacity="1" fill-rule="evenodd"/><path fill="#fee9a3" d="M 1462.925781 770.082031 C 1427.097656 770.082031 1398.054688 741.070312 1398.054688 705.285156 L 1462.925781 705.285156 Z M 1462.925781 770.082031 " fill-opacity="1" fill-rule="evenodd"/><path fill="#4987a0" d="M 1398.054688 834.882812 C 1433.878906 834.882812 1462.925781 805.871094 1462.925781 770.082031 L 1398.054688 770.082031 Z M 1398.054688 834.882812 " fill-opacity="1" fill-rule="evenodd"/><path fill="#f15a42" d="M 1462.925781 705.289062 C 1462.925781 669.5 1433.878906 640.488281 1398.054688 640.488281 L 1398.054688 705.289062 Z M 1462.925781 705.289062 " fill-opacity="1" fill-rule="evenodd"/><path fill="#fee9a3" d="M 1398.054688 640.488281 C 1398.054688 604.703125 1427.09375 575.691406 1462.925781 575.691406 L 1462.925781 640.488281 Z M 1398.054688 640.488281 " fill-opacity="1" fill-rule="evenodd"/><path fill="#f15a42" d="M 1333.179688 705.289062 C 1297.347656 705.289062 1268.304688 734.300781 1268.304688 770.082031 L 1333.179688 770.082031 Z M 1333.179688 705.289062 " fill-opacity="1" fill-rule="evenodd"/><path fill="#fee9a3" d="M 1333.179688 770.082031 C 1333.179688 805.871094 1304.132812 834.882812 1268.304688 834.882812 L 1268.304688 770.082031 Z M 1333.179688 770.082031 " fill-opacity="1" fill-rule="evenodd"/><g clip-path="url(#47a184238c)"><path fill="#f7b750" d="M 1268.304688 770.082031 C 1232.476562 770.082031 1203.429688 799.09375 1203.429688 834.882812 L 1268.304688 834.882812 Z M 1268.304688 770.082031 " fill-opacity="1" fill-rule="evenodd"/></g><path fill="#4987a0" d="M 1365.613281 683.515625 C 1371.476562 683.515625 1376.253906 678.742188 1376.253906 672.890625 C 1376.253906 667.035156 1371.476562 662.261719 1365.613281 662.261719 C 1359.757812 662.261719 1354.976562 667.035156 1354.976562 672.890625 C 1354.976562 678.742188 1359.757812 683.515625 1365.613281 683.515625 Z M 1365.613281 683.515625 " fill-opacity="1" fill-rule="evenodd"/><path fill="#f7b750" d="M 1398.054688 575.691406 C 1362.222656 575.691406 1333.179688 604.703125 1333.179688 640.488281 L 1398.054688 640.488281 Z M 1398.054688 575.691406 " fill-opacity="1" fill-rule="evenodd"/><g clip-path="url(#4d5e710aee)"><path fill="#f15a42" d="M 1462.925781 510.890625 C 1427.09375 510.890625 1398.054688 539.902344 1398.054688 575.691406 L 1462.925781 575.691406 Z M 1462.925781 510.890625 " fill-opacity="1" fill-rule="evenodd"/></g><path fill="#f15a42" d="M 1333.179688 770.082031 L 1398.054688 770.082031 L 1398.054688 834.882812 L 1333.179688 834.882812 Z M 1333.179688 770.082031 " fill-opacity="1" fill-rule="evenodd"/></svg>