<svg width="36" height="36" viewBox="0 0 36 36" fill="none" xmlns="http://www.w3.org/2000/svg">
<path d="M4.37695 23.992L3.18847 28.996M4.37695 23.992C4.58364 23.8639 5.37202 23.9329 6.872 25.2338M4.37695 23.992L24.0569 4.04965M12.7479 31.62L7.37397 32.81M12.7479 31.62C12.3936 31.3716 11.3503 30.0579 10.873 29.4321M12.7479 31.62C18.0855 26.2795 28.0403 16.3091 32.2036 12.1066M3.18847 28.996L2 34L7.37397 32.81M3.18847 28.996L7.37397 32.81M6.872 25.2338L8.43695 27.7468L10.873 29.4321M6.872 25.2338L25.9909 6.14907M10.873 29.4321L30.2429 10.2883M30.2429 10.2883L25.9909 6.14907M30.2429 10.2883L32.2036 12.1066M25.9909 6.14907L24.0569 4.04965M24.0569 4.04965L26.4929 1.58116C27.1179 1.1426 28.7429 0.528622 30.2429 1.58116L34.6867 6.14907C35.0361 6.92271 35.3865 8.83364 33.9928 10.2883C33.7434 10.5486 33.1111 11.1906 32.2036 12.1066" stroke="black" stroke-width="2"/>
</svg>
